<?xml version="1.0" encoding="UTF-8"?>
<svg width="604.38" height="418.6" version="1.1" viewBox="0 0 604.38 418.6" xml:space="preserve" xmlns="http://www.w3.org/2000/svg" xmlns:cc="http://creativecommons.org/ns#" xmlns:dc="http://purl.org/dc/elements/1.1/" xmlns:rdf="http://www.w3.org/1999/02/22-rdf-syntax-ns#"><metadata><rdf:RDF><cc:Work rdf:about=""><dc:format>image/svg+xml</dc:format><dc:type rdf:resource="http://purl.org/dc/dcmitype/StillImage"/><dc:title/></cc:Work></rdf:RDF></metadata><defs><clipPath id="clipPath32"><path d="m3416.5 2542.4c-5.6-5.6-8.75-13.2-8.75-21.12v-69.67c0-26.61 32.18-39.94 51-21.12l361.34 361.33c51.53 51.53 74.09 124.3 59.5 198.58-5.26 26.79-15.89 52.47-31.09 75.15-42.2 62.91-109.65 98.48-182.58 98.48-58.24 0-113-22.69-154.17-63.86l-141.47-141.47c-18.56-18.57-23.74-46.38-13.86-70.7 3.57-8.8 6.96-17.68 10.18-26.65 7.42-20.69 33.53-26.98 49.07-11.44l170.65 170.66c20.04 20.03 46.55 33.16 74.86 34.34 30.88 1.3 60.11-10.13 81.83-31.83 21.71-21.71 33.13-50.97 31.82-81.84-1.2-28.31-14.31-54.82-34.35-74.86z"/></clipPath><radialGradient id="radialGradient38" cx="0" cy="0" r="1" gradientTransform="matrix(2325.7 0 0 -2325.7 2771.8 2146.4)" gradientUnits="userSpaceOnUse"><stop stop-color="#2c378c" offset="0"/><stop stop-color="#212754" offset="1"/></radialGradient><clipPath id="clipPath48"><path d="m2720.5 3559.7c-3.52 0.16-6.97-0.03-10.47-0.04-3.5 0.01-6.95 0.2-10.47 0.04-116.39-5.49-207.57-103.18-207.57-222.41v-11.28c0-19.71 18.7-33.8 37.76-28.75 15.59 4.13 31.38 7.75 47.39 10.79 13.93 2.65 23.88 15.06 23.88 29.24 0 59.9 46.51 110.82 103.67 113.51 1.8 0.08 3.56-0.03 5.34-0.03s3.54 0.11 5.34 0.03c57.16-2.69 103.67-53.61 103.67-113.51 0-14.18 9.95-26.59 23.88-29.24 16.01-3.04 31.8-6.66 47.39-10.79 19.06-5.05 37.76 9.04 37.76 28.75v11.28c0 119.23-91.18 216.92-207.57 222.41z"/></clipPath><radialGradient id="radialGradient54" cx="0" cy="0" r="1" gradientTransform="matrix(2388.1 0 0 -2388.1 2615.5 2146.4)" gradientUnits="userSpaceOnUse"><stop stop-color="#2c378c" offset="0"/><stop stop-color="#212754" offset="1"/></radialGradient><clipPath id="clipPath64"><path d="m2003.5 2542.4c5.6-5.6 8.75-13.2 8.75-21.12v-69.67c0-26.61-32.18-39.94-51-21.12l-361.33 361.33c-51.54 51.53-74.1 124.3-59.51 198.58 5.26 26.79 15.89 52.47 31.1 75.15 42.19 62.91 109.64 98.48 182.57 98.48 58.25 0 113-22.69 154.17-63.86l141.47-141.47c18.56-18.57 23.75-46.38 13.86-70.7-3.57-8.8-6.96-17.68-10.18-26.65-7.41-20.69-33.52-26.98-49.06-11.44l-170.66 170.66c-20.04 20.03-46.55 33.16-74.86 34.34-30.88 1.3-60.11-10.13-81.83-31.83-21.71-21.71-33.12-50.97-31.82-81.84 1.2-28.31 14.31-54.82 34.35-74.86z"/></clipPath><radialGradient id="radialGradient70" cx="0" cy="0" r="1" gradientTransform="matrix(-2325.7 1e-7 -1e-7 -2325.7 2648.2 2146.4)" gradientUnits="userSpaceOnUse"><stop stop-color="#2c378c" offset="0"/><stop stop-color="#212754" offset="1"/></radialGradient><clipPath id="clipPath80"><path d="m4265.5 1881.1c-117.38 0-184.44 47.44-249.3 109.02 64.86 61.59 131.92 109.02 249.3 109.02 117.25 0 184.33-47.36 249.29-108.86-64.76-61.69-131.79-109.18-249.29-109.18zm-654.1 0h-265.88c-63.58 0-118.17-36.48-142.49-95.2-24.33-58.73-11.52-123.13 33.43-168.08l506.5-506.5c20.58-20.58 31.92-47.96 31.92-77.08 0-29.11-11.34-56.499-31.92-77.081-20.61-20.598-47.97-31.93-77.09-31.93s-56.49 11.332-77.09 31.93l-506.5 506.48c-44.93 44.95-109.33 57.75-168.06 33.44-58.73-24.33-95.22-78.92-95.22-142.48v-716.29c0-30.101-11.99-58.109-33.78-78.902-20.47-19.52-47.15-29.93-75.23-29.969-28.08 0.039-54.76 10.449-75.23 29.969-21.79 20.793-33.78 48.801-33.78 78.902v716.29c0 63.56-36.49 118.15-95.22 142.48-58.73 24.31-123.13 11.51-168.06-33.44l-506.5-506.48c-20.6-20.598-47.97-31.93-77.09-31.93s-56.48 11.332-77.09 31.93c-20.58 20.582-31.92 47.971-31.92 77.081 0 29.12 11.34 56.5 31.92 77.08l506.5 506.5c44.95 44.95 57.76 109.35 33.43 168.08-24.32 58.72-78.91 95.2-142.49 95.2h-265.88c-117.37 0-184.43 47.44-249.29 109.02 64.86 61.59 131.92 109.02 249.29 109.02h233.07c104.02 0 188.66 84.63 188.66 188.66v338.46c0 262.37 213.46 475.83 475.84 475.83 1.29 0 2.55-0.08 3.84-0.1 1.29 0.02 2.55 0.1 3.84 0.1 262.38 0 475.84-213.46 475.84-475.83v-338.46c0-104.03 84.64-188.66 188.66-188.66h233.07c117.37 0 184.43-47.43 249.29-109.02-64.86-61.58-131.92-109.02-249.29-109.02zm-2456.9 0c-117.5 0-184.53 47.49-249.3 109.18 64.961 61.5 132.04 108.86 249.3 108.86 117.38 0 184.44-47.43 249.3-109.02-64.86-61.58-131.92-109.02-249.3-109.02zm3767.4 0c-118.67 0-186.26 47.62-251.61 109.45 64.4 61.35 130.9 108.59 246.99 108.59 30.11 0 54.52 24.41 54.52 54.5 0 30.11-24.41 54.51-54.52 54.51-157.23 0-249.34-68.95-324.87-141.26-76.02 72.3-168.7 141.26-326.91 141.26-158.43 0-251.1-69.1-327.05-141.55-75.96 72.45-168.63 141.55-327.05 141.55h-233.07c-43.93 0-79.65 35.73-79.65 79.65v338.46c0 322.49-262.36 584.85-584.85 584.85-1.29 0-2.55-0.09-3.84-0.1-1.29 0.01-2.55 0.1-3.84 0.1-322.49 0-584.85-262.36-584.85-584.85v-338.46c0-43.92-35.72-79.65-79.65-79.65h-233.07c-158.42 0-251.09-69.1-327.05-141.55-75.95 72.45-168.62 141.55-327.05 141.55-158.21 0-250.88-68.96-326.91-141.26-75.527 72.31-167.64 141.26-324.88 141.26-30.105 0-54.512-24.4-54.512-54.51 0-30.09 24.407-54.5 54.512-54.5 116.1 0 182.6-47.24 246.99-108.59-65.347-61.83-132.94-109.45-251.61-109.45-30.117 0-54.512-24.4-54.512-54.51 0-30.1 24.395-54.5 54.512-54.5 159.61 0 252.83 69.24 329.23 141.85 75.89-72.62 168.53-141.85 327.18-141.85 158.43 0 251.1 69.1 327.05 141.56 75.96-72.46 168.63-141.56 327.05-141.56h265.88c28.04 0 39.07-21.36 41.77-27.91 2.72-6.54 10.03-29.45-9.79-49.28l-506.49-506.49c-41.19-41.17-63.87-95.92-63.87-154.17 0-58.241 22.68-113 63.87-154.17 41.17-41.18 95.93-63.859 154.16-63.859s112.99 22.679 154.17 63.871l506.5 506.48c19.83 19.82 42.73 12.51 49.27 9.8 6.55-2.7 27.9-13.73 27.9-41.76v-716.29c0-60.191 24-116.22 67.55-157.77 40.98-39.082 94.01-60.274 150.31-60.274 0.06 0 0.12 0.012 0.18 0.012s0.12-0.012 0.18-0.012c56.3 0 109.33 21.192 150.31 60.274 43.55 41.547 67.55 97.578 67.55 157.77v716.29c0 28.03 21.35 39.06 27.9 41.76 6.54 2.71 29.44 10.02 49.27-9.8l506.5-506.48c41.18-41.192 95.94-63.871 154.17-63.871s112.99 22.679 154.16 63.859c41.19 41.172 63.87 95.93 63.87 154.17 0 58.25-22.68 113-63.87 154.17l-506.49 506.49c-19.82 19.83-12.51 42.74-9.79 49.28 2.7 6.55 13.73 27.91 41.77 27.91h265.88c158.42 0 251.09 69.1 327.05 141.56 75.95-72.46 168.62-141.56 327.05-141.56 158.65 0 251.29 69.23 327.18 141.85 76.39-72.61 169.61-141.85 329.22-141.85 30.12 0 54.52 24.4 54.52 54.5 0 30.11-24.4 54.51-54.52 54.51z"/></clipPath><radialGradient id="radialGradient88" cx="0" cy="0" r="1" gradientTransform="matrix(1882 0 0 -1882 2710 1815.7)" gradientUnits="userSpaceOnUse"><stop stop-color="#2c378c" offset="0"/><stop stop-color="#2c378c" offset=".29016"/><stop stop-color="#212754" offset="1"/></radialGradient></defs><g transform="matrix(1.3333 0 0 -1.3333 -59.143 474.63)"><g transform="scale(.1)"><path d="m2495.8 2362.6c48.17 0 87.22 39.04 87.22 87.21 0 48.16-39.05 87.21-87.22 87.21-48.16 0-87.21-39.05-87.21-87.21 0-48.17 39.05-87.21 87.21-87.21" fill="#f36118"/><path d="m2931.9 2362.6c48.16 0 87.2 39.04 87.2 87.21 0 48.16-39.04 87.21-87.2 87.21-48.18 0-87.22-39.05-87.22-87.21 0-48.17 39.04-87.21 87.22-87.21" fill="#f36118"/><g clip-path="url(#clipPath32)"><path d="m3416.5 2542.4c-5.6-5.6-8.75-13.2-8.75-21.12v-69.67c0-26.61 32.18-39.94 51-21.12l361.34 361.33c51.53 51.53 74.09 124.3 59.5 198.58-5.26 26.79-15.89 52.47-31.09 75.15-42.2 62.91-109.65 98.48-182.58 98.48-58.24 0-113-22.69-154.17-63.86l-141.47-141.47c-18.56-18.57-23.74-46.38-13.86-70.7 3.57-8.8 6.96-17.68 10.18-26.65 7.42-20.69 33.53-26.98 49.07-11.44l170.65 170.66c20.04 20.03 46.55 33.16 74.86 34.34 30.88 1.3 60.11-10.13 81.83-31.83 21.71-21.71 33.13-50.97 31.82-81.84-1.2-28.31-14.31-54.82-34.35-74.86l-323.98-323.98" fill="url(#radialGradient38)"/></g><g clip-path="url(#clipPath48)"><path d="m2720.5 3559.7c-3.52 0.16-6.97-0.03-10.47-0.04-3.5 0.01-6.95 0.2-10.47 0.04-116.39-5.49-207.57-103.18-207.57-222.41v-11.28c0-19.71 18.7-33.8 37.76-28.75 15.59 4.13 31.38 7.75 47.39 10.79 13.93 2.65 23.88 15.06 23.88 29.24 0 59.9 46.51 110.82 103.67 113.51 1.8 0.08 3.56-0.03 5.34-0.03s3.54 0.11 5.34 0.03c57.16-2.69 103.67-53.61 103.67-113.51 0-14.18 9.95-26.59 23.88-29.24 16.01-3.04 31.8-6.66 47.39-10.79 19.06-5.05 37.76 9.04 37.76 28.75v11.28c0 119.23-91.18 216.92-207.57 222.41" fill="url(#radialGradient54)"/></g><g clip-path="url(#clipPath64)"><path d="m2003.5 2542.4c5.6-5.6 8.75-13.2 8.75-21.12v-69.67c0-26.61-32.18-39.94-51-21.12l-361.33 361.33c-51.54 51.53-74.1 124.3-59.51 198.58 5.26 26.79 15.89 52.47 31.1 75.15 42.19 62.91 109.64 98.48 182.57 98.48 58.25 0 113-22.69 154.17-63.86l141.47-141.47c18.56-18.57 23.75-46.38 13.86-70.7-3.57-8.8-6.96-17.68-10.18-26.65-7.41-20.69-33.52-26.98-49.06-11.44l-170.66 170.66c-20.04 20.03-46.55 33.16-74.86 34.34-30.88 1.3-60.11-10.13-81.83-31.83-21.71-21.71-33.12-50.97-31.82-81.84 1.2-28.31 14.31-54.82 34.35-74.86l323.98-323.98" fill="url(#radialGradient70)"/></g><g clip-path="url(#clipPath80)"><path d="m4265.5 1881.1c-117.38 0-184.44 47.44-249.3 109.02 64.86 61.59 131.92 109.02 249.3 109.02 117.25 0 184.33-47.36 249.29-108.86-64.76-61.69-131.79-109.18-249.29-109.18zm-654.1 0h-265.88c-63.58 0-118.17-36.48-142.49-95.2-24.33-58.73-11.52-123.13 33.43-168.08l506.5-506.5c20.58-20.58 31.92-47.96 31.92-77.08 0-29.11-11.34-56.499-31.92-77.081-20.61-20.598-47.97-31.93-77.09-31.93s-56.49 11.332-77.09 31.93l-506.5 506.48c-44.93 44.95-109.33 57.75-168.06 33.44-58.73-24.33-95.22-78.92-95.22-142.48v-716.29c0-30.101-11.99-58.109-33.78-78.902-20.47-19.52-47.15-29.93-75.23-29.969-28.08 0.039-54.76 10.449-75.23 29.969-21.79 20.793-33.78 48.801-33.78 78.902v716.29c0 63.56-36.49 118.15-95.22 142.48-58.73 24.31-123.13 11.51-168.06-33.44l-506.5-506.48c-20.6-20.598-47.97-31.93-77.09-31.93s-56.48 11.332-77.09 31.93c-20.58 20.582-31.92 47.971-31.92 77.081 0 29.12 11.34 56.5 31.92 77.08l506.5 506.5c44.95 44.95 57.76 109.35 33.43 168.08-24.32 58.72-78.91 95.2-142.49 95.2h-265.88c-117.37 0-184.43 47.44-249.29 109.02 64.86 61.59 131.92 109.02 249.29 109.02h233.07c104.02 0 188.66 84.63 188.66 188.66v338.46c0 262.37 213.46 475.83 475.84 475.83 1.29 0 2.55-0.08 3.84-0.1 1.29 0.02 2.55 0.1 3.84 0.1 262.38 0 475.84-213.46 475.84-475.83v-338.46c0-104.03 84.64-188.66 188.66-188.66h233.07c117.37 0 184.43-47.43 249.29-109.02-64.86-61.58-131.92-109.02-249.29-109.02zm-2456.9 0c-117.5 0-184.53 47.49-249.3 109.18 64.961 61.5 132.04 108.86 249.3 108.86 117.38 0 184.44-47.43 249.3-109.02-64.86-61.58-131.92-109.02-249.3-109.02zm3767.4 0c-118.67 0-186.26 47.62-251.61 109.45 64.4 61.35 130.9 108.59 246.99 108.59 30.11 0 54.52 24.41 54.52 54.5 0 30.11-24.41 54.51-54.52 54.51-157.23 0-249.34-68.95-324.87-141.26-76.02 72.3-168.7 141.26-326.91 141.26-158.43 0-251.1-69.1-327.05-141.55-75.96 72.45-168.63 141.55-327.05 141.55h-233.07c-43.93 0-79.65 35.73-79.65 79.65v338.46c0 322.49-262.36 584.85-584.85 584.85-1.29 0-2.55-0.09-3.84-0.1-1.29 0.01-2.55 0.1-3.84 0.1-322.49 0-584.85-262.36-584.85-584.85v-338.46c0-43.92-35.72-79.65-79.65-79.65h-233.07c-158.42 0-251.09-69.1-327.05-141.55-75.95 72.45-168.62 141.55-327.05 141.55-158.21 0-250.88-68.96-326.91-141.26-75.527 72.31-167.64 141.26-324.88 141.26-30.105 0-54.512-24.4-54.512-54.51 0-30.09 24.407-54.5 54.512-54.5 116.1 0 182.6-47.24 246.99-108.59-65.347-61.83-132.94-109.45-251.61-109.45-30.117 0-54.512-24.4-54.512-54.51 0-30.1 24.395-54.5 54.512-54.5 159.61 0 252.83 69.24 329.23 141.85 75.89-72.62 168.53-141.85 327.18-141.85 158.43 0 251.1 69.1 327.05 141.56 75.96-72.46 168.63-141.56 327.05-141.56h265.88c28.04 0 39.07-21.36 41.77-27.91 2.72-6.54 10.03-29.45-9.79-49.28l-506.49-506.49c-41.19-41.17-63.87-95.92-63.87-154.17 0-58.241 22.68-113 63.87-154.17 41.17-41.18 95.93-63.859 154.16-63.859s112.99 22.679 154.17 63.871l506.5 506.48c19.83 19.82 42.73 12.51 49.27 9.8 6.55-2.7 27.9-13.73 27.9-41.76v-716.29c0-60.191 24-116.22 67.55-157.77 40.98-39.082 94.01-60.274 150.31-60.274 0.06 0 0.12 0.012 0.18 0.012s0.12-0.012 0.18-0.012c56.3 0 109.33 21.192 150.31 60.274 43.55 41.547 67.55 97.578 67.55 157.77v716.29c0 28.03 21.35 39.06 27.9 41.76 6.54 2.71 29.44 10.02 49.27-9.8l506.5-506.48c41.18-41.192 95.94-63.871 154.17-63.871s112.99 22.679 154.16 63.859c41.19 41.172 63.87 95.93 63.87 154.17 0 58.25-22.68 113-63.87 154.17l-506.49 506.49c-19.82 19.83-12.51 42.74-9.79 49.28 2.7 6.55 13.73 27.91 41.77 27.91h265.88c158.42 0 251.09 69.1 327.05 141.56 75.95-72.46 168.62-141.56 327.05-141.56 158.65 0 251.29 69.23 327.18 141.85 76.39-72.61 169.61-141.85 329.22-141.85 30.12 0 54.52 24.4 54.52 54.5 0 30.11-24.4 54.51-54.52 54.51" fill="url(#radialGradient88)"/></g></g></g></svg>
