<?xml version="1.0" encoding="UTF-8"?>
<svg width="604.38" height="418.6" version="1.1" viewBox="0 0 604.38 418.6" xml:space="preserve" xmlns="http://www.w3.org/2000/svg" xmlns:cc="http://creativecommons.org/ns#" xmlns:dc="http://purl.org/dc/elements/1.1/" xmlns:rdf="http://www.w3.org/1999/02/22-rdf-syntax-ns#"><metadata><rdf:RDF><cc:Work rdf:about=""><dc:format>image/svg+xml</dc:format><dc:type rdf:resource="http://purl.org/dc/dcmitype/StillImage"/><dc:title/></cc:Work></rdf:RDF></metadata><g transform="matrix(1.3333 0 0 -1.3333 -89.799 736.53)"><g transform="scale(.1)"><g fill="#f36118"><path d="m3161.8 4501.2c48.17 0 87.21-39.04 87.21-87.22 0-48.16-39.04-87.2-87.21-87.2s-87.21 39.04-87.21 87.2c0 48.18 39.04 87.22 87.21 87.22"/><path d="m2725.7 4501.2c48.17 0 87.22-39.04 87.22-87.22 0-48.16-39.05-87.2-87.22-87.2-48.16 0-87.21 39.04-87.21 87.2 0 48.18 39.05 87.22 87.21 87.22"/><path d="m2725.7 4326.8c48.17 0 87.22 39.04 87.22 87.2 0 48.18-39.05 87.22-87.22 87.22-48.16 0-87.21-39.04-87.21-87.22 0-48.16 39.05-87.2 87.21-87.2"/><path d="m3161.8 4326.8c48.17 0 87.21 39.04 87.21 87.2 0 48.18-39.04 87.22-87.21 87.22s-87.21-39.04-87.21-87.22c0-48.16 39.04-87.2 87.21-87.2"/></g><g fill="#fff"><path d="m3646.4 4506.6c-5.59-5.6-8.75-13.2-8.75-21.12v-69.67c0-26.61 32.19-39.94 51.01-21.12l361.34 361.33c51.53 51.53 74.09 124.3 59.5 198.57-5.26 26.8-15.89 52.48-31.09 75.16-42.2 62.92-109.65 98.48-182.58 98.48-58.24 0-113-22.68-154.17-63.87l-141.47-141.46c-18.56-18.56-23.74-46.38-13.86-70.7 3.57-8.79 6.96-17.68 10.18-26.64 7.42-20.7 33.53-26.99 49.06-11.45l170.66 170.66c20.04 20.04 46.55 33.15 74.86 34.34 30.88 1.3 60.11-10.12 81.83-31.84 21.71-21.7 33.13-50.95 31.82-81.84-1.2-28.31-14.31-54.81-34.35-74.85l-323.99-323.98"/><path d="m2950.4 5523.9c-3.52 0.16-6.98-0.03-10.47-0.03-3.5 0-6.95 0.19-10.47 0.03-116.39-5.48-207.57-103.18-207.57-222.42v-11.26c0-19.72 18.7-33.81 37.76-28.75 15.59 4.12 31.38 7.73 47.39 10.78 13.92 2.65 23.88 15.06 23.88 29.23 0 59.91 46.51 110.84 103.67 113.52 1.79 0.08 3.56-0.03 5.34-0.03s3.54 0.11 5.34 0.03c57.16-2.68 103.67-53.61 103.67-113.52 0-14.17 9.95-26.58 23.88-29.23 16.01-3.05 31.8-6.66 47.39-10.78 19.05-5.06 37.76 9.03 37.76 28.75v11.26c0 119.24-91.19 216.94-207.57 222.42"/><path d="m2233.5 4506.6c5.6-5.6 8.75-13.2 8.75-21.12v-69.67c0-26.61-32.18-39.94-51-21.12l-361.33 361.33c-51.54 51.53-74.1 124.3-59.51 198.57 5.26 26.8 15.89 52.48 31.1 75.16 42.19 62.92 109.64 98.48 182.57 98.48 58.25 0 113-22.68 154.17-63.87l141.46-141.46c18.57-18.56 23.75-46.38 13.87-70.7-3.57-8.79-6.96-17.68-10.18-26.64-7.42-20.7-33.52-26.99-49.07-11.45l-170.65 170.66c-20.04 20.04-46.55 33.15-74.86 34.34-30.88 1.3-60.11-10.12-81.83-31.84-21.71-21.7-33.12-50.95-31.83-81.84 1.21-28.31 14.32-54.81 34.36-74.85l323.98-323.98"/><path d="m4495.4 3845.3c-117.38 0-184.44 47.44-249.3 109.02 64.86 61.59 131.92 109.02 249.3 109.02 117.25 0 184.33-47.36 249.29-108.86-64.76-61.69-131.79-109.18-249.29-109.18zm-654.1 0h-265.88c-63.58 0-118.17-36.48-142.49-95.2-24.33-58.73-11.52-123.13 33.43-168.08l506.5-506.5c20.58-20.58 31.92-47.96 31.92-77.08 0-29.11-11.34-56.5-31.92-77.08-20.61-20.6-47.97-31.94-77.09-31.94s-56.49 11.34-77.09 31.94l-506.5 506.48c-44.93 44.95-109.33 57.75-168.06 33.45-58.73-24.33-95.22-78.93-95.22-142.49v-716.29c0-30.1-11.99-58.11-33.78-78.9-20.48-19.52-47.16-29.92-75.23-29.97-28.08 0.05-54.76 10.45-75.24 29.97-21.78 20.79-33.77 48.8-33.77 78.9v716.29c0 63.56-36.49 118.16-95.22 142.49-58.73 24.3-123.13 11.5-168.07-33.45l-506.49-506.48c-20.61-20.6-47.97-31.94-77.09-31.94s-56.48 11.34-77.09 31.94c-20.59 20.58-31.92 47.97-31.92 77.08 0 29.12 11.33 56.5 31.92 77.08l506.49 506.5c44.96 44.95 57.77 109.35 33.44 168.08-24.32 58.72-78.91 95.2-142.49 95.2h-265.88c-117.37 0-184.43 47.44-249.29 109.02 64.86 61.59 131.92 109.02 249.29 109.02h233.07c104.02 0 188.66 84.63 188.66 188.66v338.46c0 262.37 213.46 475.83 475.84 475.83 1.29 0 2.55-0.09 3.84-0.1 1.29 0.01 2.55 0.1 3.84 0.1 262.38 0 475.84-213.46 475.84-475.83v-338.46c0-104.03 84.64-188.66 188.66-188.66h233.07c117.37 0 184.43-47.43 249.29-109.02-64.86-61.58-131.92-109.02-249.29-109.02zm-2456.9 0c-117.5 0-184.53 47.49-249.3 109.18 64.97 61.5 132.05 108.86 249.3 108.86 117.37 0 184.43-47.43 249.3-109.02-64.87-61.58-131.93-109.02-249.3-109.02zm3767.4 0c-118.67 0-186.26 47.62-251.61 109.45 64.4 61.35 130.9 108.59 246.99 108.59 30.11 0 54.52 24.4 54.52 54.5 0 30.11-24.41 54.51-54.52 54.51-157.23 0-249.34-68.96-324.87-141.26-76.02 72.29-168.7 141.26-326.91 141.26-158.43 0-251.1-69.1-327.05-141.55-75.96 72.45-168.63 141.55-327.05 141.55h-233.07c-43.93 0-79.65 35.74-79.65 79.65v338.46c0 322.48-262.36 584.85-584.85 584.85-1.29 0-2.55-0.09-3.84-0.09s-2.55 0.09-3.84 0.09c-322.49 0-584.85-262.37-584.85-584.85v-338.46c0-43.91-35.73-79.65-79.65-79.65h-233.07c-158.43 0-251.09-69.1-327.05-141.55-75.96 72.45-168.62 141.55-327.05 141.55-158.21 0-250.89-68.97-326.91-141.26-75.531 72.3-167.64 141.26-324.88 141.26-30.109 0-54.512-24.4-54.512-54.51 0-30.1 24.403-54.5 54.512-54.5 116.09 0 182.6-47.24 246.99-108.59-65.351-61.83-132.94-109.45-251.61-109.45-30.117 0-54.512-24.4-54.512-54.51s24.395-54.5 54.512-54.5c159.61 0 252.83 69.24 329.23 141.85 75.89-72.62 168.53-141.85 327.18-141.85 158.43 0 251.09 69.1 327.05 141.56 75.96-72.46 168.62-141.56 327.05-141.56h265.88c28.04 0 39.06-21.36 41.77-27.91 2.71-6.54 10.03-29.45-9.8-49.28l-506.48-506.49c-41.19-41.16-63.87-95.92-63.87-154.17 0-58.24 22.68-113 63.87-154.17 41.17-41.18 95.93-63.86 154.16-63.86s112.99 22.68 154.17 63.87l506.49 506.49c19.84 19.81 42.74 12.5 49.28 9.79 6.54-2.7 27.9-13.73 27.9-41.76v-716.29c0-60.19 24-116.22 67.55-157.77 40.98-39.08 94-60.27 150.31-60.27 0.06 0 0.12 0.01 0.18 0.01s0.12-0.01 0.17-0.01c56.31 0 109.34 21.19 150.32 60.27 43.55 41.55 67.55 97.58 67.55 157.77v716.29c0 28.03 21.35 39.06 27.9 41.76 6.54 2.71 29.44 10.02 49.27-9.79l506.5-506.49c41.18-41.19 95.94-63.87 154.17-63.87s112.99 22.68 154.16 63.86c41.19 41.17 63.87 95.93 63.87 154.17 0 58.25-22.68 113.01-63.87 154.17l-506.49 506.49c-19.82 19.83-12.51 42.74-9.79 49.28 2.7 6.55 13.73 27.91 41.77 27.91h265.88c158.42 0 251.09 69.1 327.05 141.56 75.95-72.46 168.62-141.56 327.05-141.56 158.65 0 251.29 69.23 327.17 141.85 76.4-72.61 169.62-141.85 329.23-141.85 30.12 0 54.51 24.39 54.51 54.5s-24.39 54.51-54.51 54.51"/></g><g fill="#f36118"><path transform="matrix(7.5 0 0 -7.5 0 5879.8)" d="m357.23 204.54c-5.9483-3.6269-6.5177-11.922-1.1701-17.046 2.4129-2.3117 3.9621-2.9001 7.6353-2.9001 3.9156 0 5.0557 0.50085 7.5855 3.3322 4.3598 4.8795 4.1783 10.466-0.49183 15.136-4.0874 4.0874-8.4918 4.5674-13.559 1.4777z" stroke-width="1.0203"/><path transform="matrix(7.5 0 0 -7.5 0 5879.8)" d="m357.23 204.54c-5.9483-3.6269-6.5177-11.922-1.1701-17.046 2.4129-2.3117 3.9621-2.9001 7.6353-2.9001 3.9156 0 5.0557 0.50085 7.5855 3.3322 4.3598 4.8795 4.1783 10.466-0.49183 15.136-4.0874 4.0874-8.4918 4.5674-13.559 1.4777z" stroke-width="1.0203"/><g stroke-width=".2217"><path transform="matrix(7.5 0 0 -7.5 0 5879.8)" d="m360.81 206.66c-3.0114-0.72899-6.2276-3.2076-7.5511-5.8194-1.2147-2.397-1.6422-5.8997-1.0099-8.2748 0.44788-1.6824 1.823-4.0118 3.1265-5.296 6.233-6.1411 16.641-3.3692 19.126 5.0942 0.50276 1.7117 0.46279 4.7143-0.0864 6.4925-1.7527 5.6746-7.8807 9.1894-13.605 7.8036z"/><path transform="matrix(7.5 0 0 -7.5 0 5879.8)" d="m360.84 206.67c-4.0317-0.97742-7.3311-4.1451-8.4865-8.1476-0.43092-1.4928-0.48436-4.5278-0.10482-5.9534 0.43908-1.6493 1.8253-4.0125 3.1002-5.285 3.5719-3.5655 9.0676-4.3515 13.586-1.9431 2.5493 1.3588 4.8572 4.288 5.6121 7.1232 0.45413 1.7055 0.3924 4.698-0.13194 6.3956-1.7514 5.6704-7.8735 9.1927-13.575 7.8104z"/><path transform="matrix(7.5 0 0 -7.5 0 5879.8)" d="m360.84 206.67c-4.0317-0.97742-7.3311-4.1451-8.4865-8.1476-0.43092-1.4928-0.48436-4.5278-0.10482-5.9534 0.75462-2.8346 3.147-5.8816 5.6677-7.2186 5.9168-3.1384 12.873-0.87295 15.866 5.1671 0.88435 1.7847 0.93459 1.9941 1.0292 4.2893 0.0828 2.0089 0.0218 2.6684-0.36397 3.9386-1.7513 5.7657-7.8535 9.3196-13.607 7.9247z"/><path transform="matrix(7.5 0 0 -7.5 0 5879.8)" d="m360.84 206.67c-4.0335-0.97786-7.331-4.1449-8.4877-8.1518-0.53599-1.8568-0.4818-4.8172 0.12096-6.6085 0.63307-1.8813 2.2276-4.2349 3.6088-5.3267 6.0219-4.76 14.31-2.9058 17.714 3.9627 0.90537 1.8271 0.94705 2.0019 1.0257 4.3006 0.067 1.9563-2e-3 2.6739-0.37796 3.9104-1.7478 5.7542-7.8554 9.307-13.604 7.9134z"/></g></g></g></g></svg>
